<?xml version="1.0" encoding="UTF-8"?>
<svg version="1.1" xmlns="http://www.w3.org/2000/svg" width="100" height="100">
<path d="M0 0 C33 0 66 0 100 0 C100 33 100 66 100 100 C67 100 34 100 0 100 C0 67 0 34 0 0 Z " fill="#F1F6F8" transform="translate(0,0)"/>
<path d="M0 0 C33 0 66 0 100 0 C100 33 100 66 100 100 C67 100 34 100 0 100 C0 67 0 34 0 0 Z M5 4 C3.75265693 6.49468614 3.85961506 8.20214604 3.83886719 10.99365234 C3.82925964 12.03588959 3.8196521 13.07812683 3.80975342 14.15194702 C3.80550354 15.28516388 3.80125366 16.41838074 3.796875 17.5859375 C3.79117493 18.75323395 3.78547485 19.9205304 3.77960205 21.12319946 C3.77013663 23.60311982 3.76361198 26.08305284 3.75976562 28.56298828 C3.75012867 32.32477506 3.71914796 36.08599942 3.6875 39.84765625 C3.68096305 42.26041343 3.6757153 44.67317452 3.671875 47.0859375 C3.6595282 48.19891205 3.6471814 49.3118866 3.63446045 50.45858765 C3.67193093 63.86509745 6.78300988 74.91199383 15.8125 85.03125 C26.03713482 94.74465308 38.56722181 98.52685841 52.33203125 98.3203125 C58.23237999 97.80505308 63.49916664 96.13055219 69 94 C69.73863281 93.72285156 70.47726563 93.44570312 71.23828125 93.16015625 C80.96234075 88.93145703 88.54222251 80.66632395 92.84613037 71.12402344 C95.46355145 64.20626902 95.40100886 57.57548235 95.328125 50.25 C95.32531525 48.30830933 95.32531525 48.30830933 95.32244873 46.32739258 C95.31787828 43.60761735 95.30356877 40.88814363 95.28125 38.16845703 C95.25274371 34.67684717 95.24201247 31.18547134 95.2375679 27.6937561 C95.23242969 24.35830114 95.2178997 21.02292713 95.203125 17.6875 C95.19887512 16.4303418 95.19462524 15.17318359 95.19024658 13.87792969 C95.18063904 12.72583008 95.17103149 11.57373047 95.16113281 10.38671875 C95.15430481 9.36795654 95.14747681 8.34919434 95.14044189 7.29956055 C95.2571424 5.03624685 95.2571424 5.03624685 94 4 C91.23061034 3.90482197 88.48622841 3.87445735 85.71655273 3.88647461 C84.84833893 3.88632858 83.98012512 3.88618256 83.08560181 3.8860321 C80.20157414 3.88673154 77.3176102 3.89452537 74.43359375 3.90234375 C72.43962133 3.90420782 70.44564845 3.90563177 68.45167542 3.90663147 C63.19254298 3.91045752 57.93343797 3.92028855 52.67431641 3.93133545 C47.31217825 3.9415477 41.95003569 3.94612869 36.58789062 3.95117188 C26.05858167 3.96191074 15.52929311 3.9789882 5 4 Z " fill="#F9FAFC" transform="translate(0,0)"/>
<path d="M0 0 C0.66 0.33 1.32 0.66 2 1 C2 1.33 2 1.66 2 2 C3.65 1.67 5.3 1.34 7 1 C6.01 4.96 5.02 8.92 4 13 C4.99 12.67 5.98 12.34 7 12 C6.34 11.34 5.68 10.68 5 10 C6.13036377 6.87413371 7.30699573 3.86674844 9 1 C11.75 -0.0625 11.75 -0.0625 14 0 C14.33 1.32 14.66 2.64 15 4 C15.33 2.68 15.66 1.36 16 0 C17.75 0.0625 17.75 0.0625 20 1 C22.44727466 4.2161819 24 6.92394904 24 11 C21.66705225 11.04241723 19.33297433 11.04092937 17 11 C16.67 10.67 16.34 10.34 16 10 C16 10.99 16 11.98 16 13 C17.65 12.34 19.3 11.68 21 11 C21 11.66 21 12.32 21 13 C22.32 12.67 23.64 12.34 25 12 C24.5317879 7.22423661 23.75668002 3.95523655 21 0 C23.76276177 0.52268466 26.3260876 1.10869587 29 2 C28.34 1.34 27.68 0.68 27 0 C30.95107118 0.53153424 32.55649937 2.30061905 35.125 5.25 C36.14980469 6.40242188 36.14980469 6.40242188 37.1953125 7.578125 C42.21129309 14.30952752 41.79077693 21.97690904 41 30 C38.72520213 37.7789963 34.15283924 43.00839576 27.23046875 47.02734375 C20.446668 50.12646957 12.26605903 50.27981771 5.1875 48.15625 C-1.6642754 45.06459525 -6.96995338 40.49510324 -10.09375 33.578125 C-12.68906251 25.8402488 -13.32398882 19.23822221 -9.8125 11.75 C-7.64820537 7.79032461 -5.40104405 4.9414435 -2 2 C-1.34 1.34 -0.68 0.68 0 0 Z " fill="#6C6974" transform="translate(35,42)"/>
<path d="M0 0 C11.58688402 -0.02312228 23.17376259 -0.0409145 34.76066494 -0.05181217 C40.14033762 -0.05704125 45.51999458 -0.06413935 50.8996582 -0.07543945 C56.08674843 -0.08626745 61.27382349 -0.09227665 66.46092415 -0.09487724 C68.4445628 -0.09673165 70.42820058 -0.10035256 72.41183281 -0.10573006 C75.18009136 -0.11293932 77.94828638 -0.11399099 80.71655273 -0.11352539 C81.54517319 -0.11712067 82.37379364 -0.12071594 83.2275238 -0.12442017 C88.88594784 -0.11405216 88.88594784 -0.11405216 90 1 C90.11473669 2.78227897 90.15964233 4.56909652 90.17700195 6.35498047 C90.19625481 8.07344681 90.19625481 8.07344681 90.21589661 9.82662964 C90.22328354 11.07751373 90.23067047 12.32839783 90.23828125 13.6171875 C90.246353 14.89925079 90.25442474 16.18131409 90.26274109 17.50222778 C90.27779506 20.22772084 90.28761556 22.95318764 90.29516602 25.67871094 C90.30614622 29.14291403 90.3404338 32.60645964 90.38033772 36.07043266 C90.413069 39.39848878 90.41730861 42.72648303 90.42578125 46.0546875 C90.44328934 47.28532928 90.46079742 48.51597107 90.47883606 49.78390503 C90.44596314 63.01103976 86.48709668 72.24802961 77.34375 81.71484375 C67.32897388 90.99740746 53.95376373 94.69530364 40.55078125 94.34375 C28.50452558 93.17755583 17.4383458 88.0562633 9.125 79.1875 C0.3432537 68.27876 -1.31720826 57.00102083 -1.23046875 43.37890625 C-1.23001053 42.1977977 -1.22955231 41.01668915 -1.2290802 39.79978943 C-1.22607408 37.31972236 -1.21823736 34.8396569 -1.20581055 32.35961914 C-1.18744081 28.55022563 -1.18530188 24.74107401 -1.18554688 20.93164062 C-1.18063532 18.51822705 -1.17480859 16.10481513 -1.16796875 13.69140625 C-1.16685593 12.54877823 -1.1657431 11.40615021 -1.16459656 10.22889709 C-1.15821671 9.17697678 -1.15183685 8.12505646 -1.14526367 7.04125977 C-1.14145187 6.11354263 -1.13764008 5.1858255 -1.13371277 4.22999573 C-1 2 -1 2 0 0 Z M3 4 C2.938125 12.53875 2.87625 21.0775 2.8125 29.875 C2.78518799 32.55093262 2.75787598 35.22686523 2.72973633 37.98388672 C2.72096494 40.1324824 2.71332255 42.28108312 2.70703125 44.4296875 C2.69168335 45.52289307 2.67633545 46.61609863 2.66052246 47.74243164 C2.65642183 59.89944955 5.75697527 69.13762758 13.96875 78.1640625 C23.33675257 87.22658672 34.69492666 90.4175234 47.4609375 90.2734375 C58.57090079 89.41505182 69.19538352 84.81542583 77.09765625 76.8984375 C84.78321726 67.66271026 86.59827906 58.57497464 86.390625 46.7734375 C86.38213531 44.93019394 86.38213531 44.93019394 86.37347412 43.04971313 C86.35123617 39.15773148 86.30106079 35.26669941 86.25 31.375 C86.22991886 28.72266962 86.21167093 26.0703247 86.1953125 23.41796875 C86.15141251 16.94499317 86.08462624 10.47256446 86 4 C82.87507749 3.94208156 79.75029234 3.90643254 76.625 3.875 C75.29082031 3.84986328 75.29082031 3.84986328 73.9296875 3.82421875 C73.07890625 3.81777344 72.228125 3.81132813 71.3515625 3.8046875 C70.56604004 3.79421387 69.78051758 3.78374023 68.97119141 3.77294922 C66.765535 3.82009873 66.765535 3.82009873 65 6 C66.98 6 68.96 6 71 6 C71 13.59 71 21.18 71 29 C68.69 29 66.38 29 64 29 C64 23.06 64 17.12 64 11 C60.37 11.33 56.74 11.66 53 12 C53 13.32 53 14.64 53 16 C55.64 16 58.28 16 61 16 C61 17.32 61 18.64 61 20 C58.03 20 55.06 20 52 20 C52 22.97 52 25.94 52 29 C50.02 29 48.04 29 46 29 C46 21.41 46 13.82 46 6 C50.95 6 55.9 6 61 6 C61.33 5.34 61.66 4.68 62 4 C42.53 4 23.06 4 3 4 Z " fill="#748C9F" transform="translate(5,4)"/>
<path d="M0 0 C1.27649414 -0.01023193 2.55298828 -0.02046387 3.86816406 -0.03100586 C4.94520599 -0.03963905 4.94520599 -0.03963905 6.04400635 -0.04844666 C8.16245085 0.00402363 9.95822941 0.45580908 12 1 C14.08234592 1.06743348 16.16668557 1.08514472 18.25 1.0625 C19.86648437 1.04896484 19.86648437 1.04896484 21.515625 1.03515625 C22.74539062 1.01775391 22.74539062 1.01775391 24 1 C24 1.33 24 1.66 24 2 C21.03 2 18.06 2 15 2 C15 9.92 15 17.84 15 26 C16.98 26 18.96 26 21 26 C21 21.38 21 16.76 21 12 C22.75189174 15.50378348 23.30599988 17.39582327 23.8125 21.125 C24.22545463 23.73451101 24.22545463 23.73451101 25 26 C27.45748398 27.75568004 27.45748398 27.75568004 30 28 C29.67 29.65 29.34 31.3 29 33 C28.34 33 27.68 33 27 33 C26.773125 33.556875 26.54625 34.11375 26.3125 34.6875 C25 37 25 37 22.625 39.1875 C18.24574025 43.87956402 15.7927108 49.08886306 15.625 55.5625 C15.76068664 58.55804343 16.2399093 61.29034269 17 64.1875 C17.9140212 67.67220582 18.1786208 70.42758402 18 74 C16.375 74.75 16.375 74.75 14 75 C7.83810005 72.18695872 4.76799348 67.03622674 2 61 C-0.15348298 54.14308983 -0.26135824 47.7783012 -0.1953125 40.625 C-0.1924826 39.4599292 -0.18965271 38.2948584 -0.18673706 37.09448242 C-0.17559807 33.39621438 -0.15050479 29.69819408 -0.125 26 C-0.1149621 23.48307643 -0.10583766 20.96614904 -0.09765625 18.44921875 C-0.0756793 12.29939553 -0.04226444 6.14971547 0 0 Z " fill="#F9FBFB" transform="translate(8,8)"/>
<path d="M0 0 C28.05 0 56.1 0 85 0 C85 0.66 85 1.32 85 2 C75.1 2.495 75.1 2.495 65 3 C66.32 3.33 67.64 3.66 69 4 C69 11.59 69 19.18 69 27 C66.69 27 64.38 27 62 27 C61.67 21.39 61.34 15.78 61 10 C57.7 10 54.4 10 51 10 C51 11.32 51 12.64 51 14 C53.64 14 56.28 14 59 14 C59 15.32 59 16.64 59 18 C56.03 18 53.06 18 50 18 C50 20.97 50 23.94 50 27 C48.02 27 46.04 27 44 27 C44 19.41 44 11.82 44 4 C48.95 3.67 53.9 3.34 59 3 C39.86 2.67 20.72 2.34 1 2 C1 19.82 1 37.64 1 56 C0.67 56 0.34 56 0 56 C0 37.52 0 19.04 0 0 Z " fill="#66A181" transform="translate(7,6)"/>
<path d="M0 0 C2.02194491 4.21373319 2.3281554 7.78583081 2.375 12.4375 C2.40335938 13.71496094 2.43171875 14.99242188 2.4609375 16.30859375 C1.92746054 20.58093044 0.60942309 22.62909099 -2 26 C-2.66 26.99 -3.32 27.98 -4 29 C-4.66 29 -5.32 29 -6 29 C-6 29.66 -6 30.32 -6 31 C-9.71973879 33.84450614 -12.37390802 34.3227506 -17 34 C-15.35 32.35 -13.7 30.7 -12 29 C-13.32 28.67 -14.64 28.34 -16 28 C-16 28.99 -16 29.98 -16 31 C-17.32 31 -18.64 31 -20 31 C-19.67 32.98 -19.34 34.96 -19 37 C-20.65 37 -22.3 37 -24 37 C-24 36.34 -24 35.68 -24 35 C-23.34 35 -22.68 35 -22 35 C-22 33.68 -22 32.36 -22 31 C-23.32 31 -24.64 31 -26 31 C-26 30.01 -26 29.02 -26 28 C-26.928125 28.309375 -26.928125 28.309375 -27.875 28.625 C-28.57625 28.74875 -29.2775 28.8725 -30 29 C-30.66 28.34 -31.32 27.68 -32 27 C-32 26.01 -32 25.02 -32 24 C-32.99 24 -33.98 24 -35 24 C-35 23.34 -35 22.68 -35 22 C-34.34 22 -33.68 22 -33 22 C-33 20.35 -33 18.7 -33 17 C-32.01 17.33 -31.02 17.66 -30 18 C-27.73584906 23.20754717 -27.73584906 23.20754717 -29 27 C-27.68 27 -26.36 27 -25 27 C-25 27.99 -25 28.98 -25 30 C-24.236875 29.814375 -23.47375 29.62875 -22.6875 29.4375 C-20 29 -20 29 -17 30 C-16.67 28.68 -16.34 27.36 -16 26 C-15.01 26 -14.02 26 -13 26 C-13.495 23.525 -13.495 23.525 -14 21 C-13.34 21 -12.68 21 -12 21 C-12 20.01 -12 19.02 -12 18 C-11.34 18 -10.68 18 -10 18 C-9.67 17.01 -9.34 16.02 -9 15 C-7.95550089 18.13349732 -8.06576355 18.98968256 -9 22 C-8.01 21.67 -7.02 21.34 -6 21 C-6 18.03 -6 15.06 -6 12 C-6.33 12.66 -6.66 13.32 -7 14 C-9.65756064 15.74839516 -11.97382445 16.99127482 -15 18 C-14.87625 19.11375 -14.87625 19.11375 -14.75 20.25 C-15 23 -15 23 -16.6875 25.375 C-19 27 -19 27 -21.625 26.8125 C-24 26 -24 26 -26 25 C-26.36923077 19.46153846 -26.36923077 19.46153846 -24.5 17.125 C-24.005 16.75375 -23.51 16.3825 -23 16 C-24.417121 13.165758 -26.23094162 10.62505437 -28 8 C-27.67 7.34 -27.34 6.68 -27 6 C-26.319375 6.53625 -25.63875 7.0725 -24.9375 7.625 C-21.94027673 9.38809986 -21.94027673 9.38809986 -18.1875 8.1875 C-17.135625 7.795625 -16.08375 7.40375 -15 7 C-15 7.99 -15 8.98 -15 10 C-14.67386719 9.36191406 -14.34773438 8.72382812 -14.01171875 8.06640625 C-13.57472656 7.24011719 -13.13773438 6.41382813 -12.6875 5.5625 C-12.25824219 4.73878906 -11.82898438 3.91507813 -11.38671875 3.06640625 C-8.65541163 -1.00362605 -4.46308463 -0.08420914 0 0 Z " fill="#F3BF64" transform="translate(71,53)"/>
<path d="M0 0 C2.97 0 5.94 0 9 0 C9.20496094 0.62648438 9.40992188 1.25296875 9.62109375 1.8984375 C9.89050781 2.71570313 10.15992188 3.53296875 10.4375 4.375 C10.83775391 5.59316406 10.83775391 5.59316406 11.24609375 6.8359375 C11.95179729 9.01031799 11.95179729 9.01031799 13 11 C13.99 7.37 14.98 3.74 16 0 C18.97 0 21.94 0 25 0 C25 7.26 25 14.52 25 22 C23.35 22 21.7 22 20 22 C19.505 15.565 19.505 15.565 19 9 C18.525625 10.959375 18.05125 12.91875 17.5625 14.9375 C16.125 20.875 16.125 20.875 15 22 C13.33382885 22.04063832 11.66611905 22.042721 10 22 C9.01 19.03 8.02 16.06 7 13 C6.67 16.3 6.34 19.6 6 23 C4.02 23 2.04 23 0 23 C0 15.41 0 7.82 0 0 Z " fill="#39438B" transform="translate(23,11)"/>
<path d="M0 0 C4.14652239 1.38217413 5.41643907 4.26811593 7.625 7.8125 C8.03234375 8.44220703 8.4396875 9.07191406 8.859375 9.72070312 C10.78881231 12.76499742 12.40919958 15.42941213 13 19 C12.0625 21.25 12.0625 21.25 11 23 C10.34 23 9.68 23 9 23 C9 22.34 9 21.68 9 21 C8.01 20.67 7.02 20.34 6 20 C5.34 19.01 4.68 18.02 4 17 C3.34 17 2.68 17 2 17 C2.42136122 23.53836379 2.8961321 29.09597873 7.94140625 33.81640625 C9.35928212 35.03136608 10.7974154 36.22321556 12.2578125 37.38671875 C14 39 14 39 15 42 C8.51359695 41.72973321 4.70037272 39.42445986 0 35 C-6.23417032 27.71910478 -6.62678404 21.30279474 -6 12 C-4.96455286 7.44403259 -3.09461212 3.53669957 0 0 Z " fill="#F1BD6D" transform="translate(31,47)"/>
<path d="M0 0 C0.33 0 0.66 0 1 0 C1.33 18.15 1.66 36.3 2 55 C2.33 55 2.66 55 3 55 C3.14695312 55.61746094 3.29390625 56.23492187 3.4453125 56.87109375 C6.11460455 66.94997236 11.22813408 75.13262879 20 81 C25.48819676 83.75480358 30.93352769 85.95749836 37 87 C37 87.33 37 87.66 37 88 C43.27 88 49.54 88 56 88 C48.32140702 93.11906199 41.68086756 93.08176155 32.57421875 91.34765625 C21.6350817 88.29517849 11.27066171 82.72563435 5 73 C-1.95944822 59.62096577 -0.59084978 44.73212934 -0.34332275 30.08343506 C-0.29147607 26.68403796 -0.26919158 23.28444707 -0.24414062 19.88476562 C-0.18946729 13.25601643 -0.10614495 6.62811443 0 0 Z " fill="#769899" transform="translate(6,6)"/>
<path d="M0 0 C0.33 1.32 0.66 2.64 1 4 C1.33 2.68 1.66 1.36 2 0 C3.75 0.0625 3.75 0.0625 6 1 C8.44727466 4.2161819 10 6.92394904 10 11 C7.66705225 11.04241723 5.33297433 11.04092937 3 11 C2.67 10.67 2.34 10.34 2 10 C2 10.99 2 11.98 2 13 C3.65 12.34 5.3 11.68 7 11 C7 11.66 7 12.32 7 13 C8.65 12.67 10.3 12.34 12 12 C10.66511872 15.59391114 9.03977277 18.75490696 7 22 C6.67 21.01 6.34 20.02 6 19 C5.113125 19.391875 4.22625 19.78375 3.3125 20.1875 C0 21 0 21 -2.8125 19.8125 C-5 18 -5 18 -6 15 C-5.34 14.67 -4.68 14.34 -4 14 C-5.65 12.68 -7.3 11.36 -9 10 C-8.38302681 8.51746733 -7.75616104 7.03904826 -7.125 5.5625 C-6.60292969 4.32693359 -6.60292969 4.32693359 -6.0703125 3.06640625 C-4.46563418 -0.03167707 -3.46058388 0 0 0 Z " fill="#4E9F83" transform="translate(49,42)"/>
<path d="M0 0 C0.66 0.33 1.32 0.66 2 1 C2 1.33 2 1.66 2 2 C3.65 1.67 5.3 1.34 7 1 C6.01 4.96 5.02 8.92 4 13 C5.98 13 7.96 13 10 13 C10.33 13.66 10.66 14.32 11 15 C10.01 15 9.02 15 8 15 C8.42307123 16.31722179 8.86397486 17.62872664 9.3125 18.9375 C9.55613281 19.66839844 9.79976562 20.39929688 10.05078125 21.15234375 C10.91240441 23.35932024 10.91240441 23.35932024 14 24 C13.67 25.65 13.34 27.3 13 29 C12.01 29.33 11.02 29.66 10 30 C10 31.98 10 33.96 10 36 C12.97 36.33 15.94 36.66 19 37 C19.226875 35.7625 19.45375 34.525 19.6875 33.25 C20.50044394 29.97499729 20.97755666 29.02301881 23.4375 26.5 C26 25 26 25 29 25 C29.495 23.515 29.495 23.515 30 22 C30.33 22 30.66 22 31 22 C31.05395478 23.62463842 31.09277195 25.24978541 31.125 26.875 C31.14820313 27.77992187 31.17140625 28.68484375 31.1953125 29.6171875 C31 32 31 32 29 34 C28.01 33.505 28.01 33.505 27 33 C27 31.02 27 29.04 27 27 C26.67 27.66 26.34 28.32 26 29 C25.34 29 24.68 29 24 29 C24 29.99 24 30.98 24 32 C23.34 32 22.68 32 22 32 C22.33 33.65 22.66 35.3 23 37 C21.515 37.495 21.515 37.495 20 38 C19.67 38.99 19.34 39.98 19 41 C16.36 41 13.72 41 11 41 C11 40.01 11 39.02 11 38 C9.68 38 8.36 38 7 38 C7.020625 37.2575 7.04125 36.515 7.0625 35.75 C7.00671312 33.29537721 6.6930096 31.33890739 6 29 C5.34 29 4.68 29 4 29 C3.67 28.01 3.34 27.02 3 26 C3.66 26 4.32 26 5 26 C5.33 26.33 5.66 26.66 6 27 C7.27519879 24.7736571 7.27519879 24.7736571 8 22 C7.08610899 19.44234831 7.08610899 19.44234831 5.375 17.0625 C4.80910156 16.20011719 4.24320313 15.33773437 3.66015625 14.44921875 C3.11230469 13.64097656 2.56445312 12.83273438 2 12 C1.60683594 11.34644531 1.21367188 10.69289063 0.80859375 10.01953125 C-0.25106188 8.20383895 -0.25106188 8.20383895 -2 6 C-2.99 6 -3.98 6 -5 6 C-3.86695008 2.60085025 -2.87481525 1.94745549 0 0 Z " fill="#969482" transform="translate(35,42)"/>
<path d="M0 0 C2.76276177 0.52268466 5.3260876 1.10869587 8 2 C7.34 1.34 6.68 0.68 6 0 C9.95107118 0.53153424 11.55649937 2.30061905 14.125 5.25 C14.80820313 6.01828125 15.49140625 6.7865625 16.1953125 7.578125 C21.22264259 14.32475845 20.82044509 21.89499701 20 30 C18.64756024 34.32134139 17.16500721 38.7684878 13.0703125 41.09765625 C12.04550781 41.54431641 12.04550781 41.54431641 11 42 C9.70269607 42.86662004 8.41107032 43.74179508 7.125 44.625 C3.61962673 46.86344997 1.22824239 47.5285303 -3 47 C-2.67 46.34 -2.34 45.68 -2 45 C0.31074405 44.25881795 2.64811553 43.59793673 5 43 C5.804375 42.79375 6.60875 42.5875 7.4375 42.375 C7.953125 42.25125 8.46875 42.1275 9 42 C9 41.34 9 40.68 9 40 C9.66 40 10.32 40 11 40 C11.12375 39.1646875 11.12375 39.1646875 11.25 38.3125 C12 36 12 36 14.02734375 33.828125 C16.58920482 30.15527864 16.44020284 27.87187099 16.3125 23.4375 C16.28800781 22.13683594 16.26351562 20.83617187 16.23828125 19.49609375 C16.05507588 16.80808048 15.79861013 14.55165676 15 12 C14.01 12.495 14.01 12.495 13 13 C13 12.34 13 11.68 13 11 C10.36 11.33 7.72 11.66 5 12 C4.80664062 11.38511719 4.61328125 10.77023438 4.4140625 10.13671875 C4.15367188 9.32847656 3.89328125 8.52023438 3.625 7.6875 C3.36976562 6.88699219 3.11453125 6.08648437 2.8515625 5.26171875 C2.01168189 2.77275472 2.01168189 2.77275472 0 0 Z " fill="#DBBB8F" transform="translate(56,42)"/>
<path d="M0 0 C5.61 0 11.22 0 17 0 C17 1.65 17 3.3 17 5 C13.7 5 10.4 5 7 5 C7 6.32 7 7.64 7 9 C9.64 9 12.28 9 15 9 C15 10.32 15 11.64 15 13 C12.03 13 9.06 13 6 13 C6 15.97 6 18.94 6 22 C4.02 22 2.04 22 0 22 C0 14.74 0 7.48 0 0 Z " fill="#293A90" transform="translate(51,11)"/>
<path d="M0 0 C1.0828125 1.11375 1.0828125 1.11375 2.1875 2.25 C7.83558933 7.77257623 13.27084123 12.10163928 21.40234375 12.29296875 C22.91434373 12.27333239 24.4262162 12.23800563 25.9375 12.1875 C26.71673828 12.17396484 27.49597656 12.16042969 28.29882812 12.14648438 C30.19952404 12.11150224 32.09985834 12.05770959 34 12 C34.495 13.485 34.495 13.485 35 15 C23.34918528 17.63428347 11.77432876 16.23551624 1.25390625 10.50390625 C-2.29489924 8.22699265 -4.63871671 6.54192493 -7 3 C-4.03 3.495 -4.03 3.495 -1 4 C-0.67 2.68 -0.34 1.36 0 0 Z " fill="#E4F2F1" transform="translate(26,78)"/>
<path d="M0 0 C1.03125 0.53625 2.0625 1.0725 3.125 1.625 C6.26061243 2.99802785 6.88895477 3.02624705 10.4375 2.1875 C11.283125 1.795625 12.12875 1.40375 13 1 C13 3.31 13 5.62 13 8 C12.01 8 11.02 8 10 8 C10 8.99 10 9.98 10 11 C10.99 11 11.98 11 13 11 C13.32728047 14.60008519 13.40422813 16.41611492 11.3125 19.4375 C9 21 9 21 6.375 20.8125 C4 20 4 20 2 19 C1.63076923 13.46153846 1.63076923 13.46153846 3.5 11.125 C3.995 10.75375 4.49 10.3825 5 10 C3.93977916 7.76439496 3.93977916 7.76439496 1.9375 5 C0 2 0 2 0 0 Z " fill="#98BBB8" transform="translate(43,59)"/>
<path d="M0 0 C1 2 1 2 0.125 5.125 C-4.35726951 14.86024598 -14.80843893 19.39954435 -24.125 23.3125 C-27.86029201 24.205722 -31.1639662 24.13227703 -35 24 C-35 23.67 -35 23.34 -35 23 C-33.35 22.67 -31.7 22.34 -30 22 C-35.28 22 -40.56 22 -46 22 C-46 21.67 -46 21.34 -46 21 C-45.14019531 20.97421875 -44.28039063 20.9484375 -43.39453125 20.921875 C-30.19266791 20.28841591 -18.42744825 17.51290038 -8 9 C-6.18018792 6.94631649 -4.61611576 4.89954886 -3.12109375 2.6015625 C-2 1 -2 1 0 0 Z " fill="#758D99" transform="translate(88,73)"/>
<path d="M0 0 C3.52300334 0.50328619 5.50586501 1.41174405 7.8046875 4.1484375 C12.19273059 10.8821626 12.19273059 10.8821626 11.375 15.625 C10.92125 16.40875 10.4675 17.1925 10 18 C9.34 18 8.68 18 8 18 C8 17.34 8 16.68 8 16 C7.01 15.67 6.02 15.34 5 15 C4.34 14.01 3.68 13.02 3 12 C-0.55672179 10.7811879 -0.55672179 10.7811879 -4 10 C-4.33 8.35 -4.66 6.7 -5 5 C-4.01 5 -3.02 5 -2 5 C-2 4.01 -2 3.02 -2 2 C-1.34 2 -0.68 2 0 2 C0 1.34 0 0.68 0 0 Z " fill="#F2BE64" transform="translate(32,52)"/>
<path d="M0 0 C2.97 0 5.94 0 9 0 C8.67 0.66 8.34 1.32 8 2 C8.33 2.66 8.66 3.32 9 4 C9.039992 5.99960012 9.04346799 8.00047242 9 10 C8.67 9.34 8.34 8.68 8 8 C7.34 8 6.68 8 6 8 C5.67 12.62 5.34 17.24 5 22 C3.35 22 1.7 22 0 22 C0 14.74 0 7.48 0 0 Z " fill="#2B3A8B" transform="translate(23,11)"/>
<path d="M0 0 C1.98 0 3.96 0 6 0 C6 7.26 6 14.52 6 22 C4.02 22 2.04 22 0 22 C0 14.74 0 7.48 0 0 Z " fill="#2A3890" transform="translate(70,11)"/>
<path d="M0 0 C1.04449911 3.13349732 0.93423645 3.98968256 0 7 C0.66 7.33 1.32 7.66 2 8 C1.01 8.33 0.02 8.66 -1 9 C-1.73323796 11.01508358 -1.73323796 11.01508358 -2 13 C-3.65 13 -5.3 13 -7 13 C-7 13.99 -7 14.98 -7 16 C-8.32 16 -9.64 16 -11 16 C-10.67 17.98 -10.34 19.96 -10 22 C-11.65 22 -13.3 22 -15 22 C-15 21.34 -15 20.68 -15 20 C-14.34 20 -13.68 20 -13 20 C-13 18.68 -13 17.36 -13 16 C-14.32 16 -15.64 16 -17 16 C-17 15.01 -17 14.02 -17 13 C-17.61875 13.20625 -18.2375 13.4125 -18.875 13.625 C-19.57625 13.74875 -20.2775 13.8725 -21 14 C-21.66 13.34 -22.32 12.68 -23 12 C-23 11.01 -23 10.02 -23 9 C-23.99 9 -24.98 9 -26 9 C-26 8.34 -26 7.68 -26 7 C-25.34 7 -24.68 7 -24 7 C-24 5.35 -24 3.7 -24 2 C-23.01 2.33 -22.02 2.66 -21 3 C-18.73584906 8.20754717 -18.73584906 8.20754717 -20 12 C-18.68 12 -17.36 12 -16 12 C-16 12.99 -16 13.98 -16 15 C-15.236875 14.814375 -14.47375 14.62875 -13.6875 14.4375 C-11 14 -11 14 -8 15 C-7.67 13.68 -7.34 12.36 -7 11 C-6.01 11 -5.02 11 -4 11 C-4.33 9.35 -4.66 7.7 -5 6 C-4.34 6 -3.68 6 -3 6 C-3 5.01 -3 4.02 -3 3 C-2.34 3 -1.68 3 -1 3 C-0.67 2.01 -0.34 1.02 0 0 Z " fill="#BAD4EC" transform="translate(62,68)"/>
<path d="M0 0 C2.97 0 5.94 0 9 0 C9 7.26 9 14.52 9 22 C7.35 22 5.7 22 4 22 C4 16.39 4 10.78 4 5 C3.01 5 2.02 5 1 5 C0.67 5 0.34 5 0 5 C0 3.35 0 1.7 0 0 Z " fill="#29397C" transform="translate(39,11)"/>
<path d="M0 0 C0.99 0 1.98 0 3 0 C3.04898438 0.75925781 3.09796875 1.51851562 3.1484375 2.30078125 C3.22320312 3.29464844 3.29796875 4.28851563 3.375 5.3125 C3.44460937 6.29863281 3.51421875 7.28476563 3.5859375 8.30078125 C3.83865472 11.21528433 3.83865472 11.21528433 6 14 C5.525625 14.433125 5.05125 14.86625 4.5625 15.3125 C2.76313043 17.02309613 2.76313043 17.02309613 2 20 C1.34 20 0.68 20 0 20 C0 20.66 0 21.32 0 22 C-3.71973879 24.84450614 -6.37390802 25.3227506 -11 25 C-10.36771484 24.29423828 -10.36771484 24.29423828 -9.72265625 23.57421875 C-9.17480469 22.95160156 -8.62695312 22.32898438 -8.0625 21.6875 C-7.51722656 21.07261719 -6.97195312 20.45773438 -6.41015625 19.82421875 C-4.79918441 17.94758042 -4.79918441 17.94758042 -4 15 C-2.68 14.67 -1.36 14.34 0 14 C0 10.37 0 6.74 0 3 C-0.33 3.66 -0.66 4.32 -1 5 C-1.66 4.67 -2.32 4.34 -3 4 C-1.6875 2 -1.6875 2 0 0 Z " fill="#ECBB6A" transform="translate(65,62)"/>
<path d="M0 0 C0.33 0 0.66 0 1 0 C1.05395478 1.62463842 1.09277195 3.24978541 1.125 4.875 C1.14820312 5.77992187 1.17140625 6.68484375 1.1953125 7.6171875 C1 10 1 10 -1 12 C-1.66 11.67 -2.32 11.34 -3 11 C-3 9.02 -3 7.04 -3 5 C-3.33 5.66 -3.66 6.32 -4 7 C-4.66 7 -5.32 7 -6 7 C-6 7.99 -6 8.98 -6 10 C-6.66 10 -7.32 10 -8 10 C-7.67 11.65 -7.34 13.3 -7 15 C-7.99 15.33 -8.98 15.66 -10 16 C-10.33 16.99 -10.66 17.98 -11 19 C-13.64 19 -16.28 19 -19 19 C-19 18.01 -19 17.02 -19 16 C-20.32 16 -21.64 16 -23 16 C-22.979375 15.2575 -22.95875 14.515 -22.9375 13.75 C-22.99328688 11.29537721 -23.3069904 9.33890739 -24 7 C-23.01 7.33 -22.02 7.66 -21 8 C-20.67 9.98 -20.34 11.96 -20 14 C-17.03 14.33 -14.06 14.66 -11 15 C-10.773125 13.7625 -10.54625 12.525 -10.3125 11.25 C-9.49955606 7.97499729 -9.02244334 7.02301881 -6.5625 4.5 C-4 3 -4 3 -1 3 C-0.67 2.01 -0.34 1.02 0 0 Z " fill="#3B4883" transform="translate(65,64)"/>
<path d="M0 0 C0.33 0 0.66 0 1 0 C1 5.28 1 10.56 1 16 C2.65 16 4.3 16 6 16 C3.35261084 17.4606285 2.10551666 18 -1 18 C-0.67 19.65 -0.34 21.3 0 23 C-0.99 23.66 -1.98 24.32 -3 25 C-3 25.66 -3 26.32 -3 27 C-4.65 27.66 -6.3 28.32 -8 29 C-7.34 28.01 -6.68 27.02 -6 26 C-6.33 25.34 -6.66 24.68 -7 24 C-6.34 24 -5.68 24 -5 24 C-4.67 22.35 -4.34 20.7 -4 19 C-6.475 18.01 -6.475 18.01 -9 17 C-9 16.67 -9 16.34 -9 16 C-7.35 15.67 -5.7 15.34 -4 15 C-2.68 10.05 -1.36 5.1 0 0 Z " fill="#D7E1F3" transform="translate(42,17)"/>
<path d="M0 0 C3.48052073 3.48052073 4.16404868 8.26294254 5 13 C6.485 12.7834375 6.485 12.7834375 8 12.5625 C12.66808114 12.52439322 15.10872891 15.146455 18.3984375 18.17578125 C20 20 20 20 21 23 C13.72357184 22.69681549 9.40564118 19.52336704 4.41796875 14.36328125 C0.80405903 9.89536405 0.14113231 5.65812246 0 0 Z " fill="#E7C06F" transform="translate(25,66)"/>
<path d="M0 0 C4.71200882 4.32995405 7.60777425 8.05830687 8.46875 14.515625 C8.53589895 22.53992468 8.18706196 29.51617255 3 36 C1.0703125 37.09765625 1.0703125 37.09765625 -1 38 C-2.29730393 38.86662004 -3.58892968 39.74179508 -4.875 40.625 C-8.38037327 42.86344997 -10.77175761 43.5285303 -15 43 C-14.67 42.34 -14.34 41.68 -14 41 C-11.68925595 40.25881795 -9.35188447 39.59793673 -7 39 C-6.195625 38.79375 -5.39125 38.5875 -4.5625 38.375 C-4.046875 38.25125 -3.53125 38.1275 -3 38 C-3 37.34 -3 36.68 -3 36 C-2.34 36 -1.68 36 -1 36 C-0.938125 35.4225 -0.87625 34.845 -0.8125 34.25 C0.31106084 31.13860075 2.45195535 30.03843572 5 28 C7.25772734 21.61464844 6.85033962 14.18184994 4.125 8.0625 C3.43645678 6.69816437 2.72881517 5.34325423 2 4 C1.33056469 2.66805458 0.66308004 1.33512062 0 0 Z " fill="#9C8873" transform="translate(68,46)"/>
<path d="M0 0 C5.28 0 10.56 0 16 0 C16 1.32 16 2.64 16 4 C13.03 4 10.06 4 7 4 C6.67 3.34 6.34 2.68 6 2 C3.97536745 1.34786708 3.97536745 1.34786708 2 1 C2.18433594 1.83789062 2.36867187 2.67578125 2.55859375 3.5390625 C3.0508232 7.39848986 2.67750329 10.54027358 2.0625 14.375 C1.86785156 15.62023438 1.67320313 16.86546875 1.47265625 18.1484375 C1.31667969 19.08945312 1.16070312 20.03046875 1 21 C2.32 21 3.64 21 5 21 C5 18.36 5 15.72 5 13 C5.33 13 5.66 13 6 13 C6 15.97 6 18.94 6 22 C4.02 22 2.04 22 0 22 C0 14.74 0 7.48 0 0 Z " fill="#2C3A7D" transform="translate(51,11)"/>
<path d="M0 0 C1.32 1.32 2.64 2.64 4 4 C3.690625 4.7425 3.38125 5.485 3.0625 6.25 C1.9619776 8.84247864 1.9619776 8.84247864 1.625 11.0625 C0.70836675 13.90406307 -0.62957278 15.22217959 -3 17 C-5.75 16.75 -5.75 16.75 -8 16 C-8 15.01 -8 14.02 -8 13 C-7.34 12.67 -6.68 12.34 -6 12 C-5.31653318 10.34015202 -4.65411685 8.67163195 -4 7 C-2.7239448 4.62948207 -1.36542483 2.32122221 0 0 Z " fill="#EABE66" transform="translate(61,54)"/>
<path d="M0 0 C0 0.33 0 0.66 0 1 C-2.97 1 -5.94 1 -9 1 C-9.12117188 1.77085938 -9.24234375 2.54171875 -9.3671875 3.3359375 C-9.61855469 4.84027344 -9.61855469 4.84027344 -9.875 6.375 C-10.03742187 7.37273438 -10.19984375 8.37046875 -10.3671875 9.3984375 C-11 12 -11 12 -13 14 C-13.99 10.04 -14.98 6.08 -16 2 C-18.97 1.67 -21.94 1.34 -25 1 C-25 0.67 -25 0.34 -25 0 C-16.56758584 -1.35520942 -8.46334215 -0.67499048 0 0 Z " fill="#E1E8F8" transform="translate(48,10)"/>
<path d="M0 0 C1.29676812 4.61073111 0.71109139 8.33840089 0 13 C-4.455 12.01 -4.455 12.01 -9 11 C-8.38348417 9.3509698 -7.75652258 7.70584159 -7.125 6.0625 C-6.77695312 5.14597656 -6.42890625 4.22945312 -6.0703125 3.28515625 C-4.52224813 -0.02001767 -3.61574725 0 0 0 Z " fill="#4EB3D3" transform="translate(49,42)"/>
<path d="M0 0 C0.33 0 0.66 0 1 0 C1.33 18.15 1.66 36.3 2 55 C2.33 55 2.66 55 3 55 C3.19573608 56.43640171 3.38127816 57.87419504 3.5625 59.3125 C3.66691406 60.11300781 3.77132813 60.91351563 3.87890625 61.73828125 C4 64 4 64 3 67 C-0.11136675 59.33103721 -0.39711669 52.65457479 -0.29296875 44.43359375 C-0.28872391 43.15895767 -0.28447906 41.88432159 -0.28010559 40.57106018 C-0.26623423 37.21224507 -0.23936858 33.85406301 -0.20599365 30.49542236 C-0.17508729 27.05624812 -0.16155672 23.617008 -0.14648438 20.17773438 C-0.11352491 13.45165074 -0.06340767 6.72586184 0 0 Z " fill="#A4E3D0" transform="translate(6,6)"/>
<path d="M0 0 C0.66 0.33 1.32 0.66 2 1 C0.54261898 1.98058352 -0.91593675 2.95942132 -2.375 3.9375 C-3.18710938 4.48277344 -3.99921875 5.02804688 -4.8359375 5.58984375 C-7 7 -7 7 -9 8 C-8.67 8.66 -8.34 9.32 -8 10 C-13.71735105 12.45029331 -17.79029227 13.33266291 -24 13 C-24 12.67 -24 12.34 -24 12 C-22.35 11.67 -20.7 11.34 -19 11 C-24.28 11 -29.56 11 -35 11 C-35 10.67 -35 10.34 -35 10 C-33.71029297 9.96132812 -33.71029297 9.96132812 -32.39453125 9.921875 C-20.09034363 9.33148868 -10.2746719 6.78516069 0 0 Z " fill="#5F8A7E" transform="translate(77,84)"/>
<path d="M0 0 C0.33 0 0.66 0 1 0 C1.17688347 7.26670872 1.34284411 14.53357969 1.49477577 21.80085564 C1.56566529 25.17516818 1.64034731 28.54930869 1.72363281 31.92333984 C1.81746497 35.80031412 1.89831907 39.67737128 1.9765625 43.5546875 C2.00875885 44.76929657 2.0409552 45.98390564 2.0741272 47.23532104 C2.09429901 48.35633209 2.11447083 49.47734314 2.13525391 50.63232422 C2.15746002 51.62271698 2.17966614 52.61310974 2.20254517 53.6335144 C2 56 2 56 0 58 C-0.70710678 59.64991582 -1.37943989 61.31562256 -2 63 C-3.0946931 59.7159207 -2.88875368 58.80765943 -2.08837891 55.55712891 C-0.82917266 49.71120141 -0.65204831 44.05003216 -0.5859375 38.0859375 C-0.56657135 36.99028473 -0.5472052 35.89463196 -0.5272522 34.76577759 C-0.46797306 31.30226165 -0.42127924 27.83871153 -0.375 24.375 C-0.33677261 22.01170509 -0.29771819 19.64842341 -0.2578125 17.28515625 C-0.16231465 11.5235558 -0.07711951 5.76187421 0 0 Z " fill="#99B9C0" transform="translate(93,8)"/>
<path d="M0 0 C0.66 0.33 1.32 0.66 2 1 C2 1.33 2 1.66 2 2 C3.65 1.67 5.3 1.34 7 1 C6.67 1.86625 6.34 2.7325 6 3.625 C5.00439138 6.98517909 4.84550881 9.52394822 5 13 C5 13.99 5 14.98 5 16 C4.52949219 15.278125 4.05898438 14.55625 3.57421875 13.8125 C2.95160156 12.884375 2.32898437 11.95625 1.6875 11 C1.07261719 10.071875 0.45773438 9.14375 -0.17578125 8.1875 C-0.77777344 7.465625 -1.37976562 6.74375 -2 6 C-2.99 6 -3.98 6 -5 6 C-3.86695008 2.60085025 -2.87481525 1.94745549 0 0 Z " fill="#677882" transform="translate(35,42)"/>
<path d="M0 0 C3 1 3 1 4.6875 4.0625 C5.120625 5.031875 5.55375 6.00125 6 7 C5.401875 6.814375 4.80375 6.62875 4.1875 6.4375 C1.83591238 5.77906313 1.83591238 5.77906313 -1 7 C-1 7.99 -1 8.98 -1 10 C-1.99 10 -2.98 10 -4 10 C-3.67 11.98 -3.34 13.96 -3 16 C-3.99 16.33 -4.98 16.66 -6 17 C-5.82316211 10.05509386 -4.11844576 5.57737857 0 0 Z " fill="#E3BE73" transform="translate(31,47)"/>
<path d="M0 0 C1.32 0 2.64 0 4 0 C4.38885039 1.78871178 4.76069196 3.58112874 5.125 5.375 C5.33382812 6.37273438 5.54265625 7.37046875 5.7578125 8.3984375 C5.83773437 9.25695313 5.91765625 10.11546875 6 11 C5.34 11.66 4.68 12.32 4 13 C4 13.66 4 14.32 4 15 C3.34 15 2.68 15 2 15 C1.67 14.01 1.34 13.02 1 12 C0.67 15.3 0.34 18.6 0 22 C-1.98 22 -3.96 22 -6 22 C-6 21.67 -6 21.34 -6 21 C-4.35 21 -2.7 21 -1 21 C-1 15.72 -1 10.44 -1 5 C-0.67 5.66 -0.34 6.32 0 7 C0.66 7 1.32 7 2 7 C1.34414811 3.39007621 1.34414811 3.39007621 0 0 Z " fill="#5C689D" transform="translate(29,12)"/>
<path d="M0 0 C3.12826838 0.29100171 4.37427733 1.19380207 6.6875 3.25 C4.7075 3.25 2.7275 3.25 0.6875 3.25 C0.6875 10.51 0.6875 17.77 0.6875 25.25 C0.3575 25.25 0.0275 25.25 -0.3125 25.25 C-0.6425 17.99 -0.9725 10.73 -1.3125 3.25 C-6.9225 3.25 -12.5325 3.25 -18.3125 3.25 C-18.3125 2.92 -18.3125 2.59 -18.3125 2.25 C-17.24128906 2.18941406 -16.17007813 2.12882813 -15.06640625 2.06640625 C-13.66925609 1.98201463 -12.27212143 1.89736594 -10.875 1.8125 C-9.81442383 1.75352539 -9.81442383 1.75352539 -8.73242188 1.69335938 C-5.40966704 1.48668084 -3.02678888 0.32722042 0 0 Z " fill="#BEC9E5" transform="translate(69.3125,7.75)"/>
<path d="M0 0 C2.7801924 1.01940388 3.82814217 1.69720287 5.3125 4.3125 C6.07479299 7.2923726 5.83686751 9.0709637 5 12 C3.68 12.33 2.36 12.66 1 13 C-0.2834998 8.9088444 -1.38021934 5.3091525 -1 1 C-0.67 0.67 -0.34 0.34 0 0 Z " fill="#549DB6" transform="translate(33,63)"/>
<path d="M0 0 C2.76276177 0.52268466 5.3260876 1.10869587 8 2 C7.34 1.34 6.68 0.68 6 0 C7.875 0.3125 7.875 0.3125 10 1 C10.66 1.99 11.32 2.98 12 4 C10.02 6.64 8.04 9.28 6 12 C4 8 2 4 0 0 Z " fill="#4BA8CB" transform="translate(56,42)"/>
<path d="M0 0 C1.65 0 3.3 0 5 0 C3.02 2.31 1.04 4.62 -1 7 C5.67353409 6.71601983 9.71077185 3.92194468 15 0 C12.96912721 4.85958847 9.58562825 6.71145555 5 9 C1.6875 9.9375 1.6875 9.9375 -1 10 C-1.99 9.34 -2.98 8.68 -4 8 C-4.1875 5.375 -4.1875 5.375 -4 3 C-2.68 3 -1.36 3 0 3 C0 2.01 0 1.02 0 0 Z " fill="#66757A" transform="translate(55,81)"/>
<path d="M0 0 C1.98 0 3.96 0 6 0 C6 7.26 6 14.52 6 22 C4.02 22 2.04 22 0 22 C0 14.74 0 7.48 0 0 Z M2 2 C0.80658248 2.97332261 0.80658248 2.97332261 0.88647461 4.76586914 C0.89171143 5.51473389 0.89694824 6.26359863 0.90234375 7.03515625 C0.90556641 7.84404297 0.90878906 8.65292969 0.91210938 9.48632812 C0.92048828 10.33646484 0.92886719 11.18660156 0.9375 12.0625 C0.94201172 12.91650391 0.94652344 13.77050781 0.95117188 14.65039062 C0.96299627 16.76695663 0.98093231 18.88348685 1 21 C2.32 21 3.64 21 5 21 C5 14.73 5 8.46 5 2 C4.01 2 3.02 2 2 2 Z " fill="#2D387A" transform="translate(70,11)"/>
<path d="M0 0 C3.46049455 2.99909528 5.06056062 5.49069095 6 10 C5.125 12.375 5.125 12.375 4 14 C3.34 14 2.68 14 2 14 C2 13.34 2 12.68 2 12 C1.01 11.67 0.02 11.34 -1 11 C-1.6875 8.9375 -1.6875 8.9375 -2 7 C-1.34 7 -0.68 7 0 7 C-0.33 6.01 -0.66 5.02 -1 4 C-0.34 4 0.32 4 1 4 C0.67 2.68 0.34 1.36 0 0 Z " fill="#EEBB72" transform="translate(38,56)"/>
<path d="M0 0 C1 3 1 3 1 7 C1.99 6.67 2.98 6.34 4 6 C4 5.01 4 4.02 4 3 C4.99 3 5.98 3 7 3 C6.67 5.31 6.34 7.62 6 10 C3.1875 10.625 3.1875 10.625 0 11 C-0.99 10.34 -1.98 9.68 -3 9 C-3.375 6.0625 -3.375 6.0625 -3 3 C-1.5 1.125 -1.5 1.125 0 0 Z " fill="#DBDFEC" transform="translate(48,69)"/>
<path d="M0 0 C2.92879371 0.62759865 5.36095629 1.58622659 8 3 C8.391875 2.505 8.78375 2.01 9.1875 1.5 C11.55091715 -0.45593143 13.01435003 -0.24207973 16 0 C15.39816251 2.02045442 14.72693904 4.02111039 14 6 C13.01 6.495 13.01 6.495 12 7 C12 6.01 12 5.02 12 4 C11.113125 4.391875 10.22625 4.78375 9.3125 5.1875 C6 6 6 6 3.1875 4.8125 C1 3 1 3 0 0 Z " fill="#3D885B" transform="translate(43,57)"/>
<path d="M0 0 C3.09246438 1.06636703 4.00415447 2.00644659 5.8125 4.8125 C7.07069492 8.18976004 7.0899321 9.63111895 6 13 C4.68 13 3.36 13 2 13 C2 12.34 2 11.68 2 11 C0.02 11.99 -1.96 12.98 -4 14 C-3.67 11.36 -3.34 8.72 -3 6 C-2.79375 6.639375 -2.5875 7.27875 -2.375 7.9375 C-1.10461791 10.34925077 -1.10461791 10.34925077 2.125 10.75 C3.07375 10.8325 4.0225 10.915 5 11 C4.35474023 9.5414128 3.7087728 8.08313863 3.0625 6.625 C2.52302734 5.40683594 2.52302734 5.40683594 1.97265625 4.1640625 C1.3430097 2.76316215 0.68687358 1.37374716 0 0 Z " fill="#A5E7E9" transform="translate(54,42)"/>
<path d="M0 0 C2.97 0 5.94 0 9 0 C8.67 0.66 8.34 1.32 8 2 C6.35 1.67 4.7 1.34 3 1 C2.25492456 7.37305598 1.89650183 13.58311325 2 20 C2.99 20 3.98 20 5 20 C5 20.66 5 21.32 5 22 C3.35 22 1.7 22 0 22 C0 14.74 0 7.48 0 0 Z " fill="#303C75" transform="translate(23,11)"/>
<path d="M0 0 C0.33 0.66 0.66 1.32 1 2 C-2.99795892 2.95619733 -6.70803922 3.1039592 -10.8125 3.0625 C-11.97394531 3.05347656 -13.13539062 3.04445313 -14.33203125 3.03515625 C-15.21246094 3.02355469 -16.09289063 3.01195313 -17 3 C-17.33 2.34 -17.66 1.68 -18 1 C-15.75152519 0.63627613 -13.50113812 0.28435904 -11.25 -0.0625 C-9.99703125 -0.25972656 -8.7440625 -0.45695312 -7.453125 -0.66015625 C-2.66386766 -1.13149719 -2.66386766 -1.13149719 0 0 Z " fill="#E0F4EB" transform="translate(60,91)"/>
<path d="M0 0 C0.33 0 0.66 0 1 0 C1 2.31 1 4.62 1 7 C1.33 6.01 1.66 5.02 2 4 C2.33 4 2.66 4 3 4 C2.56844639 10.04175053 1.37684613 14.89013095 -2 20 C-2.66 20.33 -3.32 20.66 -4 21 C-3.814375 20.21625 -3.62875 19.4325 -3.4375 18.625 C-2.74037734 16.02910225 -2.74037734 16.02910225 -4 14 C-3.27720683 12.02874591 -2.54868546 10.05903942 -1.76953125 8.109375 C-0.79779817 5.44574119 -0.3509066 2.80725279 0 0 Z " fill="#628087" transform="translate(91,58)"/>
<path d="M0 0 C4.63714903 1.46436285 4.63714903 1.46436285 6.3125 3.9375 C7 6 7 6 7 9 C4.69 9 2.38 9 0 9 C0 6.03 0 3.06 0 0 Z " fill="#36A6D4" transform="translate(52,44)"/>
<path d="M0 0 C0.33 0 0.66 0 1 0 C1 1.65 1 3.3 1 5 C-2.3 5 -5.6 5 -9 5 C-9 6.65 -9 8.3 -9 10 C-12 9 -12 9 -13.1875 7.1875 C-14 5 -14 5 -14 1 C-11.525 1.495 -11.525 1.495 -9 2 C-9 2.66 -9 3.32 -9 4 C-6.03 4 -3.06 4 0 4 C0 2.68 0 1.36 0 0 Z " fill="#48569B" transform="translate(67,11)"/>
<path d="M0 0 C0.99 0 1.98 0 3 0 C3.66 1.32 4.32 2.64 5 4 C5.33 4 5.66 4 6 4 C6 5.98 6 7.96 6 10 C4.33388095 10.042721 2.66617115 10.04063832 1 10 C0 9 0 9 -0.09765625 6.93359375 C-0.08605469 6.10988281 -0.07445313 5.28617188 -0.0625 4.4375 C-0.05347656 3.61121094 -0.04445313 2.78492188 -0.03515625 1.93359375 C-0.02355469 1.29550781 -0.01195313 0.65742188 0 0 Z " fill="#2C3C87" transform="translate(32,23)"/>
<path d="M0 0 C4.875 4.75 4.875 4.75 6 7 C5.67 7.66 5.34 8.32 5 9 C3.3713449 8.57630928 1.74712622 8.1355377 0.125 7.6875 C-0.77992187 7.44386719 -1.68484375 7.20023437 -2.6171875 6.94921875 C-5 6 -5 6 -7 3 C-4.03 3.495 -4.03 3.495 -1 4 C-0.67 2.68 -0.34 1.36 0 0 Z " fill="#F1F4F4" transform="translate(26,78)"/>
<path d="M0 0 C2.64 0 5.28 0 8 0 C6.02 0.99 6.02 0.99 4 2 C4.33 2.33 4.66 2.66 5 3 C5.04080783 4.99958364 5.04254356 7.00045254 5 9 C1.125 8.125 1.125 8.125 0 7 C-0.04092937 4.66702567 -0.04241723 2.33294775 0 0 Z " fill="#FAFCFE" transform="translate(58,25)"/>
<path d="M0 0 C0.33 0 0.66 0 1 0 C1.05395478 1.62463842 1.09277195 3.24978541 1.125 4.875 C1.14820312 5.77992187 1.17140625 6.68484375 1.1953125 7.6171875 C1 10 1 10 -1 12 C-1.66 11.67 -2.32 11.34 -3 11 C-3 9.02 -3 7.04 -3 5 C-3.33 5.66 -3.66 6.32 -4 7 C-4.66 7 -5.32 7 -6 7 C-5.34 5.68 -4.68 4.36 -4 3 C-3.01 3 -2.02 3 -1 3 C-0.67 2.01 -0.34 1.02 0 0 Z " fill="#6296A3" transform="translate(65,64)"/>
<path d="M0 0 C2.0625 1.6875 2.0625 1.6875 4 4 C3.75 6.75 3.75 6.75 3 9 C2.67 8.34 2.34 7.68 2 7 C-0.31 7.33 -2.62 7.66 -5 8 C-1.125 1.125 -1.125 1.125 0 0 Z " fill="#E0BC77" transform="translate(67,46)"/>
<path d="M0 0 C0.33 0.66 0.66 1.32 1 2 C-1.88045467 6.65304216 -5.03915221 10.21919074 -9 14 C-9.66 13.67 -10.32 13.34 -11 13 C-9.54648985 11.01712504 -8.08752713 9.03870613 -6.625 7.0625 C-6.2125 6.49853516 -5.8 5.93457031 -5.375 5.35351562 C-2.2265625 1.11328125 -2.2265625 1.11328125 0 0 Z " fill="#8CBCB4" transform="translate(88,73)"/>
<path d="M0 0 C3.48052073 3.48052073 4.16404868 8.26294254 5 13 C6.32 13.33 7.64 13.66 9 14 C8.67 14.99 8.34 15.98 8 17 C3.36729046 12.74291556 0.17132902 9.08392234 -0.1875 2.625 C-0.125625 1.75875 -0.06375 0.8925 0 0 Z " fill="#DBBD83" transform="translate(25,66)"/>
<path d="M0 0 C2.64 0 5.28 0 8 0 C8 1.32 8 2.64 8 4 C5.03 4 2.06 4 -1 4 C-0.67 2.68 -0.34 1.36 0 0 Z " fill="#2F3A7E" transform="translate(58,20)"/>
<path d="M0 0 C0.66 0.33 1.32 0.66 2 1 C1.67 1.66 1.34 2.32 1 3 C1.99 3.33 2.98 3.66 4 4 C0.49223216 5.60355101 -2.14354879 6.22036864 -6 6 C-5 3 -5 3 -2.5625 1.25 C-1.716875 0.8375 -0.87125 0.425 0 0 Z " fill="#E7F3F1" transform="translate(65,86)"/>
<path d="M0 0 C1.04449911 3.13349732 0.93423645 3.98968256 0 7 C0.66 7.33 1.32 7.66 2 8 C0.35 8.66 -1.3 9.32 -3 10 C-3.93423645 6.98968256 -4.04449911 6.13349732 -3 3 C-2.34 3 -1.68 3 -1 3 C-0.67 2.01 -0.34 1.02 0 0 Z " fill="#CFEAF6" transform="translate(62,68)"/>
<path d="M0 0 C0.66 0.99 1.32 1.98 2 3 C1.01 3 0.02 3 -1 3 C-1 3.99 -1 4.98 -1 6 C-0.01 6 0.98 6 2 6 C2 7.98 2 9.96 2 12 C1.67 10.68 1.34 9.36 1 8 C0.01 8 -0.98 8 -2 8 C-3.0625 6.1875 -3.0625 6.1875 -4 4 C-3.67 3.01 -3.34 2.02 -3 1 C-2.01 0.67 -1.02 0.34 0 0 Z " fill="#82736A" transform="translate(54,64)"/>
<path d="M0 0 C-0.75 2.9375 -0.75 2.9375 -2 6 C-4.125 6.875 -4.125 6.875 -6 7 C-6.1875 4.625 -6.1875 4.625 -6 2 C-3 0 -3 0 0 0 Z " fill="#3FA3D2" transform="translate(42,43)"/>
<path d="M0 0 C3.92734211 3.77024843 7.44406161 7.88470051 11 12 C6.91958698 12 5.48873198 10.35977354 2.51953125 7.734375 C0.39499021 5.30944898 0.07547434 3.1699221 0 0 Z " fill="#9DBCC3" transform="translate(10,73)"/>
<path d="M0 0 C1.875 0.3125 1.875 0.3125 4 1 C4.66 1.99 5.32 2.98 6 4 C5.02471263 5.33617352 4.04466681 6.6688751 3.0625 8 C2.24458984 9.11375 2.24458984 9.11375 1.41015625 10.25 C0.94480469 10.8275 0.47945312 11.405 0 12 C-0.33 12 -0.66 12 -1 12 C-1 10.02 -1 8.04 -1 6 C-0.01 6.33 0.98 6.66 2 7 C2.77242269 5.16299211 2.77242269 5.16299211 3 3 C1.64555699 1.22809091 1.64555699 1.22809091 0 0 Z " fill="#5E7987" transform="translate(62,42)"/>
<path d="M0 0 C0.33 0.99 0.66 1.98 1 3 C-2.63 3.33 -6.26 3.66 -10 4 C-10 3.01 -10 2.02 -10 1 C-6.7 0.67 -3.4 0.34 0 0 Z " fill="#F8FBFE" transform="translate(68,15)"/>
<path d="M0 0 C1.04561999 3.13685998 1 5.72365939 1 9 C1.66 9.33 2.32 9.66 3 10 C0.03 9.505 0.03 9.505 -3 9 C-3.36923077 3.46153846 -3.36923077 3.46153846 -1.5 1.125 C-1.005 0.75375 -0.51 0.3825 0 0 Z " fill="#EBE9F0" transform="translate(48,69)"/>
<path d="M0 0 C1.98 0 3.96 0 6 0 C5.67 0.99 5.34 1.98 5 3 C2.68529088 3.72870472 0.3494053 4.39239518 -2 5 C-2.99 5.66 -3.98 6.32 -5 7 C-5 5.68 -5 4.36 -5 3 C-3.35 2.67 -1.7 2.34 0 2 C0 1.34 0 0.68 0 0 Z " fill="#86C0A0" transform="translate(55,54)"/>
<path d="M0 0 C0.99 0 1.98 0 3 0 C3 0.99 3 1.98 3 3 C4.32 3.33 5.64 3.66 7 4 C5.02 4.66 3.04 5.32 1 6 C1 5.34 1 4.68 1 4 C-0.32 4.33 -1.64 4.66 -3 5 C-3.33 4.34 -3.66 3.68 -4 3 C-3.01 2.67 -2.02 2.34 -1 2 C-0.67 1.34 -0.34 0.68 0 0 Z " fill="#E8F9FD" transform="translate(42,38)"/>
<path d="M0 0 C1.98 0 3.96 0 6 0 C6 2.64 6 5.28 6 8 C4.62437146 6.71034824 3.29233607 5.37310707 2 4 C2 3.34 2 2.68 2 2 C1.34 1.34 0.68 0.68 0 0 Z " fill="#263B91" transform="translate(41,14)"/>
<path d="M0 0 C0.33 0.66 0.66 1.32 1 2 C1.66 2.33 2.32 2.66 3 3 C3 4.32 3 5.64 3 7 C1.35 7 -0.3 7 -2 7 C-2 7.99 -2 8.98 -2 10 C-2.66 9.67 -3.32 9.34 -4 9 C-3.34 7.68 -2.68 6.36 -2 5 C-1.01 5 -0.02 5 1 5 C0.67 3.35 0.34 1.7 0 0 Z " fill="#ABC6E7" transform="translate(57,74)"/>
<path d="M0 0 C0.33 1.32 0.66 2.64 1 4 C0.34 4 -0.32 4 -1 4 C-0.67 5.65 -0.34 7.3 0 9 C-1.65 9.66 -3.3 10.32 -5 11 C-4.55123384 9.35153231 -4.09069512 7.70626545 -3.625 6.0625 C-3.36976562 5.14597656 -3.11453125 4.22945313 -2.8515625 3.28515625 C-2 1 -2 1 0 0 Z " fill="#3F3E70" transform="translate(58,70)"/>
<path d="M0 0 C1.9375 0.8125 1.9375 0.8125 4 2 C4.33 2.99 4.66 3.98 5 5 C2.92446352 5.5534764 1.15634036 6 -1 6 C-1.042721 4.33388095 -1.04063832 2.66617115 -1 1 C-0.67 0.67 -0.34 0.34 0 0 Z " fill="#73887D" transform="translate(33,63)"/>
<path d="M0 0 C1.875 0.25 1.875 0.25 4 1 C5.25 3.0625 5.25 3.0625 6 5 C7.32 5 8.64 5 10 5 C9.67 5.99 9.34 6.98 9 8 C4.75153925 7.52794881 2.73180712 5.11122478 0 2 C0 1.34 0 0.68 0 0 Z " fill="#778A82" transform="translate(35,76)"/>
<path d="M0 0 C0.99 0.33 1.98 0.66 3 1 C3.33 2.65 3.66 4.3 4 6 C2.02 6.33 0.04 6.66 -2 7 C-2 6.34 -2 5.68 -2 5 C-1.34 5 -0.68 5 0 5 C0 3.35 0 1.7 0 0 Z " fill="#D4E8F1" transform="translate(38,70)"/>
<path d="M0 0 C0.66 0 1.32 0 2 0 C3.625 3.3125 3.625 3.3125 5 7 C4.01 8.485 4.01 8.485 3 10 C-0.00617269 6.99382731 0.40414684 4.17618402 0 0 Z " fill="#F0C35E" transform="translate(26,65)"/>
<path d="M0 0 C-0.66 1.32 -1.32 2.64 -2 4 C-3.65 3.67 -5.3 3.34 -7 3 C-7 2.01 -7 1.02 -7 0 C-3.86650268 -1.04449911 -3.01031744 -0.93423645 0 0 Z " fill="#E3BD98" transform="translate(60,67)"/>
<path d="M0 0 C0.66 0 1.32 0 2 0 C2.33 2.97 2.66 5.94 3 9 C2.01 9 1.02 9 0 9 C0 6.03 0 3.06 0 0 Z " fill="#2C3A8E" transform="translate(44,23)"/>
<path d="M0 0 C1.32 0.66 2.64 1.32 4 2 C3.34 2 2.68 2 2 2 C2.33 3.98 2.66 5.96 3 8 C1.35 8 -0.3 8 -2 8 C-2 7.34 -2 6.68 -2 6 C-1.34 6 -0.68 6 0 6 C0 4.02 0 2.04 0 0 Z " fill="#C8F0FC" transform="translate(49,82)"/>
<path d="M0 0 C1.65 0.33 3.3 0.66 5 1 C4.34 2.32 3.68 3.64 3 5 C1.68 4.34 0.36 3.68 -1 3 C-0.67 2.01 -0.34 1.02 0 0 Z " fill="#927C63" transform="translate(48,72)"/>
<path d="M0 0 C0.99 0 1.98 0 3 0 C3.125 2.875 3.125 2.875 3 6 C2.34 6.66 1.68 7.32 1 8 C0.67 6.35 0.34 4.7 0 3 C-0.33 3.66 -0.66 4.32 -1 5 C-1.66 4.67 -2.32 4.34 -3 4 C-1.6875 2 -1.6875 2 0 0 Z " fill="#9F8557" transform="translate(65,62)"/>
<path d="M0 0 C2.97 0 5.94 0 9 0 C9 0.66 9 1.32 9 2 C7.88625 2.12375 6.7725 2.2475 5.625 2.375 C1.96896323 2.6465813 1.96896323 2.6465813 0 5 C0 3.35 0 1.7 0 0 Z " fill="#353C76" transform="translate(39,11)"/>
<path d="M0 0 C0.33 0.66 0.66 1.32 1 2 C-5.93 1.505 -5.93 1.505 -13 1 C-13 0.67 -13 0.34 -13 0 C-11.58456585 -0.19658808 -10.16755969 -0.38187546 -8.75 -0.5625 C-7.96109375 -0.66691406 -7.1721875 -0.77132812 -6.359375 -0.87890625 C-3.95874887 -1.00211719 -2.25079123 -0.83159765 0 0 Z " fill="#CBD8E8" transform="translate(60,91)"/>
<path d="M0 0 C0.33 0 0.66 0 1 0 C1.19573608 1.43640171 1.38127816 2.87419504 1.5625 4.3125 C1.66691406 5.11300781 1.77132813 5.91351563 1.87890625 6.73828125 C2 9 2 9 1 12 C-0.79760213 8.18009548 -1.28743526 5.21571713 -1 1 C-0.67 0.67 -0.34 0.34 0 0 Z " fill="#94BAB1" transform="translate(8,61)"/>
<path d="M0 0 C0.66 0.33 1.32 0.66 2 1 C1.34 2.65 0.68 4.3 0 6 C-2.97 5.505 -2.97 5.505 -6 5 C-5.195625 4.360625 -4.39125 3.72125 -3.5625 3.0625 C-1.7249496 1.59396498 -1.7249496 1.59396498 0 0 Z " fill="#EAEDF8" transform="translate(78,88)"/>
<path d="M0 0 C1.98 0.495 1.98 0.495 4 1 C4 1.66 4 2.32 4 3 C4.66 3.33 5.32 3.66 6 4 C5.01 4.495 5.01 4.495 4 5 C1.375 4.0625 1.375 4.0625 -1 3 C-0.67 2.01 -0.34 1.02 0 0 Z " fill="#EFBE6A" transform="translate(34,81)"/>
<path d="M0 0 C0.66 0.33 1.32 0.66 2 1 C1.835 1.598125 1.67 2.19625 1.5 2.8125 C0.8885876 5.11344336 0.8885876 5.11344336 1 8 C-0.32 7.67 -1.64 7.34 -3 7 C-1.125 2.25 -1.125 2.25 0 0 Z " fill="#F2BF71" transform="translate(58,59)"/>
<path d="M0 0 C1.04005702 3.38018531 1.08004482 6.4780279 1 10 C0.01 10.33 -0.98 10.66 -2 11 C-1.85892253 9.54119891 -1.71197585 8.08296449 -1.5625 6.625 C-1.48128906 5.81289063 -1.40007813 5.00078125 -1.31640625 4.1640625 C-1 2 -1 2 0 0 Z " fill="#E1BE87" transform="translate(27,53)"/>
<path d="M0 0 C2.31 0 4.62 0 7 0 C6.01 0.33 5.02 0.66 4 1 C4 1.99 4 2.98 4 4 C3.01 4.33 2.02 4.66 1 5 C0.67 3.35 0.34 1.7 0 0 Z " fill="#D4E0ED" transform="translate(50,33)"/>
<path d="M0 0 C1.95216435 3.90432869 2.50639991 6.72213252 3 11 C2.01 11 1.02 11 0 11 C0 7.37 0 3.74 0 0 Z " fill="#DEE6F6" transform="translate(29,20)"/>
<path d="M0 0 C3.72284268 0.50308685 5.57327341 1.11103977 8 4 C8.66 4.66 9.32 5.32 10 6 C5.16743695 5.58578031 3.17320782 3.53586014 0 0 Z " fill="#9CC1C3" transform="translate(21,86)"/>
<path d="M0 0 C2.25 0.25 2.25 0.25 4 1 C4 1.99 4 2.98 4 4 C1.33333333 4 -1.33333333 4 -4 4 C-2.25 1.9375 -2.25 1.9375 0 0 Z " fill="#FBF4FC" transform="translate(71,81)"/>
<path d="M0 0 C0 1.65 0 3.3 0 5 C-1.65 5.66 -3.3 6.32 -5 7 C-4.39816251 4.97954558 -3.72693904 2.97888961 -3 1 C-1 0 -1 0 0 0 Z " fill="#B19870" transform="translate(64,76)"/>
<path d="M0 0 C1.9375 0.3125 1.9375 0.3125 4 1 C4.33 1.99 4.66 2.98 5 4 C2.50907189 5.24546405 1.58919267 4.7767578 -1 4 C-0.67 2.68 -0.34 1.36 0 0 Z " fill="#F6BF69" transform="translate(31,75)"/>
<path d="M0 0 C0.66 0.33 1.32 0.66 2 1 C2.625 4.0625 2.625 4.0625 3 7 C2.01 7 1.02 7 0 7 C-0.33 7.66 -0.66 8.32 -1 9 C-0.67 6.03 -0.34 3.06 0 0 Z " fill="#E4B870" transform="translate(31,68)"/>
<path d="M0 0 C0.66 0 1.32 0 2 0 C3.32 2.97 4.64 5.94 6 9 C5.01 9.495 5.01 9.495 4 10 C2.68 6.7 1.36 3.4 0 0 Z " fill="#E0F8F2" transform="translate(9,65)"/>
<path d="M0 0 C0.66 0 1.32 0 2 0 C2.33 0.99 2.66 1.98 3 3 C1.68 4.32 0.36 5.64 -1 7 C-1.625 5.1875 -1.625 5.1875 -2 3 C-1.34 2.01 -0.68 1.02 0 0 Z " fill="#F5F1FD" transform="translate(4,0)"/>
<path d="M0 0 C1.9375 0.8125 1.9375 0.8125 4 2 C4.33 2.99 4.66 3.98 5 5 C2.69 4.67 0.38 4.34 -2 4 C-1.34 2.68 -0.68 1.36 0 0 Z " fill="#DEB893" transform="translate(41,84)"/>
<path d="M0 0 C0.99 0 1.98 0 3 0 C3.66 2.64 4.32 5.28 5 8 C2.5 5.6875 2.5 5.6875 0 3 C0 2.01 0 1.02 0 0 Z " fill="#77847B" transform="translate(36,50)"/>
</svg>
